<?xml version="1.0" encoding="utf-8"?>
<!-- Generator: Adobe Illustrator 15.0.0, SVG Export Plug-In . SVG Version: 6.00 Build 0)  -->
<!DOCTYPE svg PUBLIC "-//W3C//DTD SVG 1.1//EN" "http://www.w3.org/Graphics/SVG/1.1/DTD/svg11.dtd">
<svg version="1.1" id="Layer_1" xmlns="http://www.w3.org/2000/svg" xmlns:xlink="http://www.w3.org/1999/xlink" x="0px" y="0px"
	 width="2000px" height="2000px" viewBox="0 0 2000 2000" enable-background="new 0 0 2000 2000" xml:space="preserve">
<g>
	<path fill-rule="evenodd" clip-rule="evenodd" d="M25.311,26.013c-2.72-0.94,1.51-6.43,2.77-5.85
		C29.321,20.723,28.961,26.293,25.311,26.013z M12.621,11.783c0.79,0.4-0.98,5.92-1.5,6.24C7.191,18.103,8.191,9.593,12.621,11.783z
		 M71.44,14.143c-0.75-2.8,1.771-7.63,3.32-5.52C75.431,9.533,72.401,14.553,71.44,14.143z M41.201,5.683
		c0.24-0.14,1.07,0.08,1.31,0.46c1.1,1.56-1.6,6.17-4.25,7.23C38.741,10.293,39.481,6.513,41.201,5.683z M40.941,0.213
		c-0.22-0.02-0.24-0.24-0.52-0.21c-1.83,0.43-1.66,3.38-2.38,5.26c-0.46,1.21-1.3,2.54-2.15,3.85c-2.22,3.46-4.22,6.33-7.47,8.32
		c-1.3-1.45-4.27-2.4-4.11-4.66c0.12-1.75,2.77-2.59,3.09-3.11c0.31-0.54-0.1-1.01-0.39-1.42c-2.3-0.38-4.79,1.78-6.99,3.78
		c-0.12-1.54,1.48-3.33,0.28-4.34c-1.67-0.24-1.52,1.63-1.8,2.52c-1.45,2.73-3.11,7.8-5.57,7.85c0.83-2.57,2.96-6.88,0.17-8.21
		c-1.34-0.57-3.06-0.05-3.95,0.55c-2.96,2.05-2.8,7.63,0.71,9.71c-1.11,1.98-2.61,2.65-4.61,4.68c-1.72,1.38-5.92,3.48-5.16,4.59
		c1.71,1.8,2.85-1.09,4.84-2.12c2.76-2.24,4.93-4.73,7.17-7.11c1.85,0.61,3.35-1.15,4.33-2.16c-0.08,0.87-0.67,3.49,0.57,3.31
		c1.31-0.67,1.42-2.87,2.33-4.12c0.85-1.82,1.83-3.47,2.69-3.55c0.59,2.6,3.21,3.21,4.27,5.37c-2.54,1.8-6.2,6.95-1.72,9.13
		c5.27,0.5,7.03-5.26,5.47-9.51c1.71-1.78,3.59-3.26,5.07-5.3c0.41-0.56,0.54-1.57,1.45-1.73c-1.04,5.01-4.35,14.62-3.43,15.16
		c1.62,0.93,1.8-1.05,2.13-2.14c0.7-2.26,1.39-5.58,1.7-6.31c0,0,1.48-2.29,3.02-2.59c1.43,1.59,3.33,4.36,6.22,3.97
		c1.62-0.2,2.021-1.55,2.979-1.87c0.16,2.9,4.7,2.38,6.271,1.17c-0.15,0.97,0.29,1.33,0.85,1.6c1.421-0.04,1.261-1.7,1.63-2.61
		c0.551-1.44,1.48-2.91,2.16-4.38c0.68-1.5,1.04-3.6,2.52-3.84c1.69,0.71,1.631,2.87,2.531,4.1c1.129,1.51,3.289,2.68,5.719,2.75
		c2.341,3.85,6.931,1.46,9.461-0.89c1.359-1.28,2.68-3.15,3.84-4.87c1.26-1.84,4.04-5.29,2.27-5.42c-1.229-0.15-1.91,2.15-2.85,3.47
		c-1.801,2.53-4.01,5.53-6.41,6.94c-1.279,0.74-3.73,1.74-4.189-0.25c0.68-1.64,2.77-3.37,3.06-5.59c0.26-1.84-0.46-3.39-1.681-3.64
		c-2.76-0.07-5.069,3.17-4.469,8.13c-4.791-0.09-3.73-8.45-7.94-7.03c0.239-0.57,0.329-2.06-0.14-2.12
		c-1.791-0.09-2.84,5.65-4.351,8.39c-1.16,2.16-3.08,4.34-6.01,4.31c-2.271-4.18,3.61-9.65,1.35-11.17
		c-1.069-0.1-2.21,3.28-3.159,5.66c-0.82,2.04-2.201,5.07-3.761,5.23c-2.24,0.22-3.49-2.3-4.47-3.96c1.66-2.02,3.57-4.91,2.84-8.22
		c-0.2-0.91-2.4-1.84-3.73-1.74C40.701,2.843,41.371,1.243,40.941,0.213z"/>
	<path fill-rule="evenodd" clip-rule="evenodd" fill="#AC0000" d="M25.311,56.073c-2.72-0.94,1.51-6.44,2.77-5.86
		C29.321,50.772,28.961,56.343,25.311,56.073z M12.621,41.843c0.79,0.391-0.98,5.91-1.5,6.23
		C7.191,48.163,8.191,39.644,12.621,41.843z M71.44,44.192c-0.75-2.799,1.771-7.629,3.32-5.51
		C75.431,39.593,72.401,44.603,71.44,44.192z M41.201,35.733c0.24-0.141,1.07,0.09,1.31,0.459c1.1,1.561-1.6,6.17-4.25,7.24
		C38.741,40.343,39.481,36.563,41.201,35.733z M40.941,30.263c-0.22-0.02-0.24-0.24-0.52-0.2c-1.83,0.42-1.66,3.37-2.38,5.25
		c-0.46,1.209-1.3,2.539-2.15,3.85c-2.22,3.46-4.22,6.33-7.47,8.33c-1.3-1.461-4.27-2.41-4.11-4.67c0.12-1.75,2.77-2.58,3.09-3.11
		c0.31-0.54-0.1-1.01-0.39-1.41c-2.3-0.39-4.79,1.771-6.99,3.771c-0.12-1.53,1.48-3.33,0.28-4.34c-1.67-0.24-1.52,1.629-1.8,2.529
		c-1.45,2.721-3.11,7.79-5.57,7.84c0.83-2.57,2.96-6.879,0.17-8.199c-1.34-0.58-3.06-0.061-3.95,0.539
		c-2.96,2.051-2.8,7.631,0.71,9.711c-1.11,1.979-2.61,2.649-4.61,4.689c-1.72,1.37-5.92,3.48-5.16,4.58
		c1.71,1.801,2.85-1.09,4.84-2.12c2.76-2.239,4.93-4.72,7.17-7.11c1.85,0.61,3.35-1.149,4.33-2.16c-0.08,0.871-0.67,3.49,0.57,3.32
		c1.31-0.67,1.42-2.869,2.33-4.119c0.85-1.83,1.83-3.48,2.69-3.561c0.59,2.609,3.21,3.221,4.27,5.37c-2.54,1.8-6.2,6.95-1.72,9.13
		c5.27,0.5,7.03-5.25,5.47-9.51c1.71-1.77,3.59-3.26,5.07-5.29c0.41-0.56,0.54-1.57,1.45-1.74c-1.04,5.011-4.35,14.62-3.43,15.16
		c1.62,0.931,1.8-1.04,2.13-2.14c0.7-2.26,1.39-5.58,1.7-6.311c0,0,1.48-2.29,3.02-2.59c1.43,1.59,3.33,4.359,6.22,3.98
		c1.62-0.211,2.021-1.551,2.979-1.871c0.16,2.891,4.7,2.371,6.271,1.16c-0.15,0.971,0.29,1.34,0.85,1.601
		c1.421-0.04,1.261-1.7,1.63-2.61c0.551-1.43,1.48-2.91,2.16-4.38c0.68-1.489,1.04-3.601,2.52-3.84
		c1.69,0.71,1.631,2.87,2.531,4.101c1.129,1.51,3.289,2.689,5.719,2.75c2.341,3.85,6.931,1.459,9.461-0.891
		c1.359-1.279,2.68-3.15,3.84-4.859c1.26-1.851,4.04-5.301,2.27-5.42c-1.229-0.16-1.91,2.139-2.85,3.459
		c-1.801,2.541-4.01,5.53-6.41,6.94c-1.279,0.739-3.73,1.739-4.189-0.24c0.68-1.649,2.77-3.38,3.06-5.601
		c0.26-1.84-0.46-3.389-1.681-3.629c-2.76-0.08-5.069,3.17-4.469,8.119c-4.791-0.09-3.73-8.439-7.94-7.029
		c0.239-0.57,0.329-2.061-0.14-2.12c-1.791-0.091-2.84,5.649-4.351,8.39c-1.16,2.17-3.08,4.34-6.01,4.311
		c-2.271-4.18,3.61-9.65,1.35-11.17c-1.069-0.101-2.21,3.279-3.159,5.66c-0.82,2.039-2.201,5.069-3.761,5.229
		c-2.24,0.22-3.49-2.3-4.47-3.96c1.66-2.01,3.57-4.91,2.84-8.221c-0.2-0.909-2.4-1.84-3.73-1.729
		C40.701,32.894,41.371,31.293,40.941,30.263z"/>
</g>
</svg>
